<svg width="58" height="58" viewBox="0 0 58 58" fill="none" xmlns="http://www.w3.org/2000/svg">
<g filter="url(#filter0_d_3_12)">
<path d="M24.4506 5.25918C23.0919 5.69691 21.9456 6.47652 21.6601 7.15634L21.5398 7.4419L19.6561 7.43301L19.4116 6.93006C19.2253 6.54668 19.063 6.3708 18.7263 6.18701L18.2864 5.94591H15.1062C10.935 5.94591 10.4089 6.15341 10.4089 7.80355V8.26796L9.69955 8.61478C7.08441 9.8924 5.03538 12.416 4.22579 15.3546L4.00035 16.1748V26.2584C4.00035 37.2698 3.96728 36.5584 4.54742 38.1166C5.84798 41.6086 8.86291 44.1352 12.5492 44.8258C13.7886 45.0581 44.2114 45.0581 45.4508 44.8258C49.1371 44.1362 52.152 41.6096 53.4526 38.1166C54.0327 36.5584 53.9997 37.2698 53.9997 26.2584V16.1748L53.7832 15.4031C52.649 11.3647 49.7433 8.61182 45.6342 7.67905C45.02 7.53972 44.2134 7.50514 40.6765 7.46858L36.4532 7.42412L36.3369 7.14745C36.0504 6.46565 34.8209 5.64553 33.4663 5.23349C32.3992 4.9084 25.4756 4.92816 24.4506 5.25918ZM44.0601 10.8222C47.053 11.1256 49.3856 12.9526 50.3976 15.7874L50.6731 16.5591L50.7012 25.871C50.7332 36.5189 50.7653 36.0218 49.9236 37.7342C48.9758 39.662 47.064 41.1205 44.9288 41.5453C43.7856 41.7726 14.2114 41.7726 13.0712 41.5453C10.9159 41.1145 9.0112 39.6284 8.00923 37.5949C7.24473 36.0426 7.26677 36.4072 7.29883 25.871L7.32689 16.5591L7.63149 15.7163C8.60841 13.0168 10.9961 11.1167 13.7736 10.8291C14.9589 10.7066 42.8517 10.6997 44.0601 10.8212V10.8222ZM13.5171 11.8884C10.3789 12.3419 8.35391 14.8942 8.35391 18.398V19.6954H15.0661L15.2915 19.2369C16.2845 17.2123 18.2844 15.0167 20.4357 13.5869C21.2402 13.0524 23.3614 11.9763 23.6109 11.9763C23.669 11.9763 23.7161 11.9328 23.7161 11.8795C23.7161 11.7609 14.3457 11.7678 13.5171 11.8874V11.8884ZM34.2839 11.8548C34.2839 11.9002 34.4492 11.9951 34.6506 12.0652C37.7206 13.1294 41.462 16.4702 42.7385 19.2863L42.9249 19.6964H49.6471V18.399C49.6471 15.1284 48.1341 12.9842 45.1462 12.0168C44.5581 11.8261 34.2849 11.674 34.2849 11.8558L34.2839 11.8548ZM28.0707 12.5178C16.6663 13.6156 11.1324 25.9748 18.0931 34.7976C25.7892 44.5512 41.8768 39.7015 42.8858 27.3236C43.5611 19.0343 36.2528 11.7313 28.0707 12.5178ZM30.6638 15.9455C37.2327 16.8753 41.3277 23.963 38.8278 30.0774C35.9482 37.1216 26.708 38.9279 21.4136 33.4804C14.3908 26.2544 20.5819 14.5187 30.6638 15.9455ZM27.8723 17.5719C21.9617 18.395 18.553 24.3474 20.8885 29.7701C23.5698 35.9942 32.5605 36.7659 36.376 31.1001C40.5512 24.9007 35.2949 16.5394 27.8723 17.5719ZM31.7168 18.9098C32.8581 19.2596 33.7118 20.0768 33.7318 20.8366C33.7779 22.5886 30.2289 22.5332 29.0416 20.7635C28.1388 19.4187 29.747 18.3051 31.7168 18.9098ZM26.701 32.2552C27.7821 32.4805 29.3923 33.4557 29.3923 33.8846C29.3923 34.8865 25.7581 34.2393 24.697 33.0486C23.9636 32.2246 24.8564 31.8708 26.701 32.2552ZM45.9128 35.9991C43.8938 36.6167 44.2846 39.3863 46.3897 39.3794C48.5309 39.3725 48.6902 36.2629 46.564 35.9734C46.3486 35.9438 46.056 35.9556 45.9128 36.0001V35.9991Z" fill="white"/>
</g>
<defs>
<filter id="filter0_d_3_12" x="0" y="0" width="58" height="58" filterUnits="userSpaceOnUse" color-interpolation-filters="sRGB">
<feFlood flood-opacity="0" result="BackgroundImageFix"/>
<feColorMatrix in="SourceAlpha" type="matrix" values="0 0 0 0 0 0 0 0 0 0 0 0 0 0 0 0 0 0 127 0" result="hardAlpha"/>
<feOffset dy="4"/>
<feGaussianBlur stdDeviation="2"/>
<feComposite in2="hardAlpha" operator="out"/>
<feColorMatrix type="matrix" values="0 0 0 0 0 0 0 0 0 0 0 0 0 0 0 0 0 0 0.25 0"/>
<feBlend mode="normal" in2="BackgroundImageFix" result="effect1_dropShadow_3_12"/>
<feBlend mode="normal" in="SourceGraphic" in2="effect1_dropShadow_3_12" result="shape"/>
</filter>
</defs>
</svg>
